<!-- <svg width="20" height="20" viewBox="0 0 20 20" fill="none" xmlns="http://www.w3.org/2000/svg">
<path d="M10.6834 10.6829C13.4171 7.94926 13.4171 3.51707 10.6834 0.783419C10.4027 0.502702 10.5805 -0.0138667 10.9755 0.0255724C13.1923 0.24689 15.3492 1.20659 17.0474 2.90474C20.9526 6.80997 20.9526 13.1416 17.0474 17.0469C13.1421 20.9521 6.81046 20.9521 2.90523 17.0469C1.20708 15.3487 0.247378 13.1918 0.0260606 10.975C-0.0133784 10.58 0.50319 10.4022 0.783907 10.6829C3.51756 13.4166 7.94975 13.4166 10.6834 10.6829Z" fill="url(#paint0_linear_883_4378)"/>
<defs>
<linearGradient id="paint0_linear_883_4378" x1="15" y1="0" x2="15" y2="30" gradientUnits="userSpaceOnUse">
<stop stop-color="#DD7EFF"/>
<stop offset="0.461458" stop-color="#685DFF"/>
<stop offset="1" stop-color="#2152FF"/>
</linearGradient>
</defs>
</svg> -->

<svg width="20" height="20" viewBox="0 0 100 100" fill="none" xmlns="http://www.w3.org/2000/svg">
<path d="M53.4246 53.4246C67.1257 39.7237 67.1257 17.5099 53.4246 3.80898C52.0177 2.40204 52.9089 -0.186966 54.8886 0.0106999C65.999 1.11993 76.8093 5.92989 85.3205 14.4409C104.893 34.0137 104.893 65.7474 85.3205 85.3205C65.7474 104.893 34.0137 104.893 14.4409 85.3205C5.92989 76.8093 1.11993 65.999 0.0106998 54.8886C-0.186966 52.9088 2.40204 52.0177 3.80898 53.4246C17.5099 67.1257 39.7237 67.1257 53.4246 53.4246Z" fill="url(#paint0_linear_105_3)"/>
<defs>
<linearGradient id="paint0_linear_105_3" x1="75" y1="7.5" x2="-6.25" y2="128.5" gradientUnits="userSpaceOnUse">
<stop stop-color="#39FFA0"/>
<stop offset="0.621384" stop-color="#5DFF77"/>
<stop offset="1" stop-color="#21FF2A"/>
</linearGradient>
</defs>
</svg>