<svg width="16" height="16" viewBox="0 0 16 16" fill="none" xmlns="http://www.w3.org/2000/svg">
<g clip-path="url(#clip0_106_4)">
<path d="M7.20001 0.8C7.20001 0.358203 7.55821 0 8.00001 0C8.44181 0 8.80001 0.358203 8.80001 0.8V1.6C8.80001 2.0418 8.44181 2.4 8.00001 2.4C7.55821 2.4 7.20001 2.0418 7.20001 1.6V0.8Z" fill="url(#paint0_linear_106_4)"/>
<path d="M12 8C12 10.2092 10.2092 12 8 12C5.79082 12 4 10.2092 4 8C4 5.79082 5.79082 4 8 4C10.2092 4 12 5.79082 12 8Z" fill="url(#paint1_linear_106_4)"/>
<path d="M8.00001 13.6C7.55821 13.6 7.20001 13.9582 7.20001 14.4V15.2C7.20001 15.6418 7.55821 16 8.00001 16C8.44181 16 8.80001 15.6418 8.80001 15.2V14.4C8.80001 13.9582 8.44181 13.6 8.00001 13.6Z" fill="#21FF2A"/>
<path d="M2.34317 3.47451C2.03067 3.16201 2.03067 2.65557 2.34317 2.34307C2.65558 2.03066 3.16212 2.03066 3.47452 2.34307L4.04015 2.90879C4.35265 3.22119 4.35265 3.72773 4.04015 4.04014C3.72774 4.35254 3.2212 4.35254 2.9088 4.04014L2.34317 3.47451Z" fill="#5DFF77"/>
<path d="M11.9598 11.9598C11.6474 12.2722 11.6474 12.7787 11.9598 13.0911L12.5255 13.6568C12.8379 13.9692 13.3444 13.9692 13.6568 13.6568C13.9692 13.3444 13.9692 12.8379 13.6568 12.5255L13.0911 11.9598C12.7787 11.6474 12.2722 11.6474 11.9598 11.9598Z" fill="#21FF2A"/>
<path d="M0.8 8.79995C0.358203 8.79995 0 8.44175 0 7.99995C0 7.55815 0.358203 7.19995 0.8 7.19995H1.6C2.0418 7.19995 2.4 7.55815 2.4 7.99995C2.4 8.44175 2.0418 8.79995 1.6 8.79995H0.8Z" fill="#21FF2A"/>
<path d="M13.6 7.99995C13.6 8.44175 13.9582 8.79995 14.4 8.79995H15.2C15.6418 8.79995 16 8.44175 16 7.99995C16 7.55815 15.6418 7.19995 15.2 7.19995H14.4C13.9582 7.19995 13.6 7.55815 13.6 7.99995Z" fill="#5BFF21"/>
<path d="M2.99864 13.2408C2.66026 13.5248 2.15558 13.4807 1.87159 13.1423C1.58761 12.8038 1.63175 12.2992 1.97022 12.0151L2.58302 11.501C2.92149 11.217 3.42608 11.2611 3.71017 11.5995C3.99415 11.938 3.95001 12.4426 3.61153 12.7267L2.99864 13.2408Z" fill="#5BFF21"/>
<path d="M12.2898 4.40024C12.5738 4.73872 13.0784 4.78286 13.4169 4.49888L14.0297 3.98462C14.3682 3.70063 14.4123 3.19604 14.1283 2.85757C13.8443 2.51909 13.3397 2.47495 13.0013 2.75903L12.3884 3.27319C12.05 3.55718 12.0059 4.06186 12.2898 4.40024Z" fill="#5DFF8A"/>
</g>
<defs>
<linearGradient id="paint0_linear_106_4" x1="15" y1="0" x2="15" y2="15.5" gradientUnits="userSpaceOnUse">
<stop stop-color="#5DFF8A"/>
<stop offset="0.461458" stop-color="#5DFF77"/>
<stop offset="1" stop-color="#5BFF21"/>
</linearGradient>
<linearGradient id="paint1_linear_106_4" x1="15" y1="1.356e-07" x2="15" y2="15" gradientUnits="userSpaceOnUse">
<stop stop-color="#7EFFD1"/>
<stop offset="0.461458" stop-color="#5DFF8A"/>
<stop offset="1" stop-color="#5BFF21"/>
</linearGradient>
<clipPath id="clip0_106_4">
<rect width="16" height="16" fill="white"/>
</clipPath>
</defs>
</svg>